<svg width="24" height="24" viewBox="0 0 24 24" fill="none" xmlns="http://www.w3.org/2000/svg">
<rect width="24" height="24" rx="2" fill="#636366"/>
<path d="M11.2105 5.3335H12.7895C12.9298 5.3335 13 5.38288 13 5.48164V18.5187C13 18.6174 12.9298 18.6668 12.7895 18.6668H11.2105C11.0702 18.6668 11 18.6174 11 18.5187V5.48164C11 5.38288 11.0702 5.3335 11.2105 5.3335Z" fill="white"/>
<path d="M4.18605 11.1665H19.814C19.938 11.1665 20 11.225 20 11.3419V12.6577C20 12.7747 19.938 12.8332 19.814 12.8332H4.18605C4.06202 12.8332 4 12.7747 4 12.6577V11.3419C4 11.225 4.06202 11.1665 4.18605 11.1665Z" fill="white"/>
</svg>
