<svg xmlns="http://www.w3.org/2000/svg" xmlns:xlink="http://www.w3.org/1999/xlink"><symbol id="ARROWS_BOTTOM" viewBox="0 0 24 24"><path fill-rule="evenodd" clip-rule="evenodd" d="M4.47 11.47a.75.75 0 000 1.06l7 7a.75.75 0 001.06 0l7-7a.75.75 0 10-1.06-1.06l-5.72 5.72V5a.75.75 0 00-1.5 0v12.19l-5.72-5.72a.75.75 0 00-1.06 0z"/></symbol><symbol id="ARROWS_LEFT" viewBox="0 0 24 24"><path fill-rule="evenodd" clip-rule="evenodd" d="M12.53 4.47a.75.75 0 00-1.06 0l-7 7a.75.75 0 000 1.06l7 7a.75.75 0 101.06-1.06l-5.72-5.72H19a.75.75 0 000-1.5H6.81l5.72-5.72a.75.75 0 000-1.06z"/></symbol><symbol id="ARROWS_PLUS" viewBox="0 0 24 24"><rect width="24" height="24" rx="2"/><path d="M11.21 5.333h1.58c.14 0 .21.05.21.149v13.037c0 .098-.07.148-.21.148h-1.58c-.14 0-.21-.05-.21-.148V5.482c0-.1.07-.149.21-.149z"/><path d="M4.186 11.166h15.628c.124 0 .186.059.186.176v1.316c0 .117-.062.175-.186.175H4.186c-.124 0-.186-.058-.186-.175v-1.316c0-.117.062-.176.186-.176z"/></symbol><symbol id="ARROWS_RIGHT" viewBox="0 0 24 24"><path fill-rule="evenodd" clip-rule="evenodd" d="M11.47 4.47a.75.75 0 011.06 0l7 7a.75.75 0 010 1.06l-7 7a.75.75 0 11-1.06-1.06l5.72-5.72H5a.75.75 0 010-1.5h12.19l-5.72-5.72a.75.75 0 010-1.06z"/></symbol><symbol id="ARROWS_TOP" viewBox="0 0 24 24"><path fill-rule="evenodd" clip-rule="evenodd" d="M19.53 12.53a.75.75 0 000-1.06l-7-7a.75.75 0 00-1.06 0l-7 7a.75.75 0 101.06 1.06l5.72-5.72V19a.75.75 0 001.5 0V6.81l5.72 5.72a.75.75 0 001.06 0z"/></symbol></svg>