<svg xmlns="http://www.w3.org/2000/svg" xmlns:xlink="http://www.w3.org/1999/xlink"><symbol id="ARROWS_BOTTOM" viewBox="0 0 24 24"><path fill-rule="evenodd" clip-rule="evenodd" d="M4.47 11.47a.75.75 0 000 1.06l7 7a.75.75 0 001.06 0l7-7a.75.75 0 10-1.06-1.06l-5.72 5.72V5a.75.75 0 00-1.5 0v12.19l-5.72-5.72a.75.75 0 00-1.06 0z"/></symbol><symbol id="ARROWS_DIAGONALLY_TOP_RIGHT" viewBox="0 0 24 24"><path fill-rule="evenodd" clip-rule="evenodd" d="M16.004 9.414l-8.607 8.607-1.414-1.414L14.59 8H7.003V6h11v11h-2V9.414z"/></symbol><symbol id="ARROWS_LEFT" viewBox="0 0 24 24"><path fill-rule="evenodd" clip-rule="evenodd" d="M12.53 4.47a.75.75 0 00-1.06 0l-7 7a.75.75 0 000 1.06l7 7a.75.75 0 101.06-1.06l-5.72-5.72H19a.75.75 0 000-1.5H6.81l5.72-5.72a.75.75 0 000-1.06z"/></symbol><symbol id="ARROWS_RIGHT" viewBox="0 0 24 24"><path fill-rule="evenodd" clip-rule="evenodd" d="M11.47 4.47a.75.75 0 011.06 0l7 7a.75.75 0 010 1.06l-7 7a.75.75 0 11-1.06-1.06l5.72-5.72H5a.75.75 0 010-1.5h12.19l-5.72-5.72a.75.75 0 010-1.06z"/></symbol><symbol id="ARROWS_TOP" viewBox="0 0 24 24"><path fill-rule="evenodd" clip-rule="evenodd" d="M19.53 12.53a.75.75 0 000-1.06l-7-7a.75.75 0 00-1.06 0l-7 7a.75.75 0 101.06 1.06l5.72-5.72V19a.75.75 0 001.5 0V6.81l5.72 5.72a.75.75 0 001.06 0z"/></symbol></svg>